<svg width="1440" height="1024" viewBox="0 0 1440 1024" fill="none" xmlns="http://www.w3.org/2000/svg">
<g id="Desktop - 2">
<rect width="1440" height="1024" fill="white"/>
<rect id="Rectangle 39" width="342" height="985" transform="matrix(-1 0 0 1 357 19)" fill="#E0E5F5"/>
<text id="HAMZAH FAYAD" fill="black" xml:space="preserve" style="white-space: pre" font-family="Roboto" font-size="40" font-weight="500" letter-spacing="0.1em"><tspan x="70" y="234.672">HAMZAH&#10;</tspan><tspan x="70" y="278.672">FAYAD</tspan></text>
<text id="Web Developer Designer Photograph" fill="#1C1C1C" xml:space="preserve" style="white-space: pre" font-family="Roboto" font-size="24" font-weight="500" letter-spacing="0.04em"><tspan x="70" y="328.203">Web Developer&#10;</tspan><tspan x="70" y="358.203">Designer&#10;</tspan><tspan x="70" y="388.203">Photograph</tspan></text>
<g id="Group 1">
<text id="hamzahfayad.github.io/portfolio" fill="#1C1C1C" xml:space="preserve" style="white-space: pre" font-family="Roboto" font-size="12" letter-spacing="0.04em"><tspan x="106" y="447.102">hamzahfayad.github.io/portfolio</tspan></text>
<text id="github.com/HamzahFayad" fill="#1C1C1C" xml:space="preserve" style="white-space: pre" font-family="Roboto" font-size="12" letter-spacing="0.04em"><tspan x="106" y="510.102">github.com/HamzahFayad</tspan></text>
<text id="@haz_pro99" fill="#1C1C1C" xml:space="preserve" style="white-space: pre" font-family="Roboto" font-size="12" letter-spacing="0.04em"><tspan x="106" y="541.102">@haz_pro99</tspan></text>
<text id="hamzahfayad99@gmail.com" fill="#1C1C1C" xml:space="preserve" style="white-space: pre" font-family="Roboto" font-size="12" letter-spacing="0.04em"><tspan x="106" y="478.102">hamzahfayad99@gmail.com</tspan></text>
<g id="Group">
<path id="Vector" fill-rule="evenodd" clip-rule="evenodd" d="M77.465 526.066C78.638 526.012 79.012 526 82 526C84.988 526 85.362 526.013 86.534 526.066C87.706 526.119 88.506 526.306 89.206 526.577C89.939 526.854 90.604 527.287 91.154 527.847C91.714 528.396 92.146 529.06 92.422 529.794C92.694 530.494 92.88 531.294 92.934 532.464C92.988 533.639 93 534.013 93 537C93 539.988 92.987 540.362 92.934 541.535C92.881 542.705 92.694 543.505 92.422 544.205C92.146 544.939 91.7133 545.604 91.154 546.154C90.604 546.714 89.939 547.146 89.206 547.422C88.506 547.694 87.706 547.88 86.536 547.934C85.362 547.988 84.988 548 82 548C79.012 548 78.638 547.987 77.465 547.934C76.295 547.881 75.495 547.694 74.795 547.422C74.0609 547.146 73.3958 546.713 72.846 546.154C72.2864 545.605 71.8533 544.94 71.577 544.206C71.306 543.506 71.12 542.706 71.066 541.536C71.012 540.361 71 539.987 71 537C71 534.012 71.013 533.638 71.066 532.466C71.119 531.294 71.306 530.494 71.577 529.794C71.8537 529.06 72.2871 528.395 72.847 527.846C73.396 527.287 74.0605 526.853 74.794 526.577C75.494 526.306 76.294 526.12 77.464 526.066H77.465ZM86.445 528.046C85.285 527.993 84.937 527.982 82 527.982C79.063 527.982 78.715 527.993 77.555 528.046C76.482 528.095 75.9 528.274 75.512 528.425C74.999 528.625 74.632 528.862 74.247 529.247C73.882 529.602 73.6012 530.034 73.425 530.512C73.274 530.9 73.095 531.482 73.046 532.555C72.993 533.715 72.982 534.063 72.982 537C72.982 539.937 72.993 540.285 73.046 541.445C73.095 542.518 73.274 543.1 73.425 543.488C73.601 543.965 73.882 544.398 74.247 544.753C74.602 545.118 75.035 545.399 75.512 545.575C75.9 545.726 76.482 545.905 77.555 545.954C78.715 546.007 79.062 546.018 82 546.018C84.938 546.018 85.285 546.007 86.445 545.954C87.518 545.905 88.1 545.726 88.488 545.575C89.001 545.375 89.368 545.138 89.753 544.753C90.118 544.398 90.399 543.965 90.575 543.488C90.726 543.1 90.905 542.518 90.954 541.445C91.007 540.285 91.018 539.937 91.018 537C91.018 534.063 91.007 533.715 90.954 532.555C90.905 531.482 90.726 530.9 90.575 530.512C90.375 529.999 90.138 529.632 89.753 529.247C89.3979 528.882 88.9657 528.601 88.488 528.425C88.1 528.274 87.518 528.095 86.445 528.046V528.046ZM80.595 540.391C81.3797 540.718 82.2534 540.762 83.0669 540.516C83.8805 540.27 84.5834 539.749 85.0556 539.042C85.5278 538.336 85.7401 537.487 85.656 536.641C85.572 535.795 85.197 535.005 84.595 534.405C84.2112 534.021 83.7472 533.728 83.2363 533.545C82.7255 533.362 82.1804 533.295 81.6405 533.349C81.1006 533.402 80.5792 533.574 80.1138 533.853C79.6485 534.132 79.2507 534.511 78.9493 534.962C78.6479 535.413 78.4502 535.925 78.3705 536.462C78.2908 536.999 78.3312 537.546 78.4885 538.066C78.6459 538.585 78.9165 539.063 79.2807 539.465C79.645 539.867 80.0938 540.183 80.595 540.391ZM78.002 533.002C78.527 532.477 79.1503 532.061 79.8363 531.776C80.5223 531.492 81.2575 531.346 82 531.346C82.7425 531.346 83.4777 531.492 84.1637 531.776C84.8497 532.061 85.473 532.477 85.998 533.002C86.523 533.527 86.9395 534.15 87.2236 534.836C87.5078 535.522 87.654 536.258 87.654 537C87.654 537.742 87.5078 538.478 87.2236 539.164C86.9395 539.85 86.523 540.473 85.998 540.998C84.9377 542.058 83.4995 542.654 82 542.654C80.5005 542.654 79.0623 542.058 78.002 540.998C76.9417 539.938 76.346 538.5 76.346 537C76.346 535.5 76.9417 534.062 78.002 533.002V533.002ZM88.908 532.188C89.0381 532.065 89.1423 531.918 89.2143 531.754C89.2863 531.59 89.3248 531.414 89.3274 531.235C89.33 531.056 89.2967 530.879 89.2295 530.713C89.1622 530.547 89.0624 530.397 88.936 530.27C88.8095 530.144 88.6589 530.044 88.4932 529.977C88.3275 529.909 88.1499 529.876 87.9711 529.879C87.7922 529.881 87.6157 529.92 87.452 529.992C87.2883 530.064 87.1407 530.168 87.018 530.298C86.7793 530.551 86.6486 530.887 86.6537 531.235C86.6588 531.583 86.7992 531.915 87.0452 532.161C87.2911 532.407 87.6233 532.547 87.9711 532.552C88.3189 532.557 88.655 532.427 88.908 532.188V532.188Z" fill="#1C1C1C"/>
</g>
<g id="akar-icons:github-fill">
<g id="Group_2">
<path id="Vector_2" fill-rule="evenodd" clip-rule="evenodd" d="M82 494C75.9225 494 71 498.922 71 505C71 509.867 74.1488 513.979 78.5213 515.436C79.0713 515.532 79.2775 515.202 79.2775 514.914C79.2775 514.652 79.2638 513.786 79.2638 512.865C76.5 513.374 75.785 512.191 75.565 511.572C75.4413 511.256 74.905 510.28 74.4375 510.019C74.0525 509.812 73.5025 509.304 74.4237 509.29C75.29 509.276 75.9088 510.087 76.115 510.417C77.105 512.081 78.6862 511.614 79.3188 511.325C79.415 510.61 79.7038 510.129 80.02 509.854C77.5725 509.579 75.015 508.63 75.015 504.422C75.015 503.226 75.4413 502.236 76.1425 501.466C76.0325 501.191 75.6475 500.064 76.2525 498.551C76.2525 498.551 77.1737 498.263 79.2775 499.679C80.1575 499.431 81.0925 499.307 82.0275 499.307C82.9625 499.307 83.8975 499.431 84.7775 499.679C86.8813 498.249 87.8025 498.551 87.8025 498.551C88.4075 500.064 88.0225 501.191 87.9125 501.466C88.6138 502.236 89.04 503.212 89.04 504.422C89.04 508.644 86.4688 509.579 84.0213 509.854C84.42 510.197 84.7638 510.857 84.7638 511.889C84.7638 513.36 84.75 514.542 84.75 514.914C84.75 515.202 84.9563 515.546 85.5063 515.436C87.6899 514.699 89.5874 513.296 90.9317 511.423C92.276 509.551 92.9993 507.305 93 505C93 498.922 88.0775 494 82 494Z" fill="#1C1C1C"/>
</g>
</g>
<g id="carbon:email">
<path id="Vector_3" d="M91 465.5H73C72.6022 465.5 72.2206 465.658 71.9393 465.939C71.658 466.221 71.5 466.602 71.5 467V479C71.5 479.398 71.658 479.779 71.9393 480.061C72.2206 480.342 72.6022 480.5 73 480.5H91C91.3978 480.5 91.7794 480.342 92.0607 480.061C92.342 479.779 92.5 479.398 92.5 479V467C92.5 466.602 92.342 466.221 92.0607 465.939C91.7794 465.658 91.3978 465.5 91 465.5V465.5ZM89.35 467L82 472.085L74.65 467H89.35ZM73 479V467.682L81.5725 473.615C81.698 473.702 81.8472 473.749 82 473.749C82.1528 473.749 82.302 473.702 82.4275 473.615L91 467.682V479H73Z" fill="#1C1C1C"/>
</g>
<g id="ls:pc" clip-path="url(#clip0)">
<path id="Vector_4" d="M72.8103 431.123H91.159C92.1715 431.123 93 431.921 93 432.933V444.654C93 445.667 92.1715 446.526 91.159 446.526H84.0098V449.564H89.2259C89.993 449.564 90.0544 452.08 90.1464 452.172H73.8536C73.8536 452.172 73.8536 449.564 74.7741 449.564H79.9902V446.526H72.8103C71.7978 446.526 71 445.667 71 444.654V432.933C71 431.921 71.7978 431.123 72.8103 431.123ZM72.8103 444.654H91.159V432.933H72.8103V444.654Z" fill="#1C1C1C"/>
</g>
</g>
<circle id="Ellipse 6" cx="186" cy="101" r="59" fill="#C4C4C4"/>
</g>
<defs>
<clipPath id="clip0">
<rect width="22" height="21.1715" fill="white" transform="translate(71 431)"/>
</clipPath>
</defs>
</svg>
